<mxfile host="app.diagrams.net" modified="2020-11-29T15:29:08.039Z" agent="5.0 (Macintosh; Intel Mac OS X 10_15_7) AppleWebKit/605.1.15 (KHTML, like Gecko) Version/14.0.1 Safari/605.1.15" etag="EzLLQa5b8oVa9T8oZWI5" version="13.9.9" type="github">
  <diagram id="9HiJ6DpxU0Rrw7K0wKQl" name="第 1 页">
    <mxGraphModel dx="830" dy="745" grid="1" gridSize="10" guides="1" tooltips="1" connect="1" arrows="1" fold="1" page="1" pageScale="1" pageWidth="827" pageHeight="1169" math="0" shadow="0">
      <root>
        <mxCell id="0" />
        <mxCell id="1" parent="0" />
        <mxCell id="YfqhiunlIznU8pZJpsaj-10" value="&lt;sup&gt;&lt;font&gt;&lt;font&gt;&lt;font size=&quot;4&quot;&gt;(-1)&lt;/font&gt;&lt;sup&gt;&lt;font style=&quot;font-size: 12px&quot;&gt;符号位&lt;/font&gt;&lt;/sup&gt;&lt;font size=&quot;4&quot;&gt; x ( &lt;font color=&quot;#ff0000&quot;&gt;1&lt;/font&gt; + 尾数位 ) x 2&lt;/font&gt;&lt;sup&gt;&lt;font style=&quot;font-size: 12px&quot;&gt;（指数 - &lt;font color=&quot;#ff0000&quot;&gt;&lt;b&gt;127&lt;/b&gt;&lt;/font&gt;）&lt;/font&gt;&lt;/sup&gt;&lt;sup style=&quot;font-size: 18px&quot;&gt;&amp;nbsp;&lt;/sup&gt;&lt;/font&gt;&lt;br style=&quot;font-size: 18px&quot;&gt;&lt;/font&gt;&lt;/sup&gt;" style="rounded=0;whiteSpace=wrap;html=1;fontSize=18;fillColor=#fff2cc;gradientColor=#ffd966;strokeColor=none;fontStyle=0" vertex="1" parent="1">
          <mxGeometry x="120" y="400" width="490" height="65" as="geometry" />
        </mxCell>
      </root>
    </mxGraphModel>
  </diagram>
</mxfile>
